<?xml version="1.0" encoding="utf-8"?>
<!-- Generator: Adobe Illustrator 27.8.1, SVG Export Plug-In . SVG Version: 6.00 Build 0)  -->
<svg version="1.1" id="Layer_1" xmlns="http://www.w3.org/2000/svg" xmlns:xlink="http://www.w3.org/1999/xlink" x="0px" y="0px"
	 viewBox="0 0 213.9 77" style="enable-background:new 0 0 213.9 77;" xml:space="preserve">
<style type="text/css">
	.st0{fill:#005484;}
	.st1{font-family:'Basic-Regular';}
	.st2{font-size:41.3253px;}
</style>
<g id="XMLID_5_">
	<g>
		<g id="XMLID_00000009591506733252247260000013419362221185706646_">
			<g>
				<path class="st0" d="M44.3,6.3c1,2.1,1.4,5.4,1.6,6.3c0.3,1.7,0.4,3.5,0.2,5.2c-0.2,2.2-0.9,4.3-1.9,6.4
					c-2.6,5.7-7.8,9.3-12.4,13.3c-4.5,3.9-10,8.5-8.9,15.2c0.7,4.1,3.6,8.1,6.6,10.9c2.3,2.3,5.3,3.6,8.6,3.5
					c4.1-0.2,7.3-3,10.4-5.4c3.7-2.9,7.4-5.7,11.1-8.6c0.7-0.6-4.1-6.8-4.7-6.3c-3,2.4-6.1,4.7-9.1,7.1c-2.8,2.2-5.5,4.7-8.8,6
					c-2.8,1.2-5.9,1.2-8.5-0.2c-0.3-0.2-0.6-0.5-0.6-0.8v0c-0.3-1.5-0.3-3.2,0.2-4.7c1.7-5.6,7.3-9.4,11.5-13
					c4.2-3.5,8-7.2,10.1-12.3c1-2.5,1.5-5.2,1.4-7.9c-0.2-4.3-1.8-8.2-4.2-11.7c-0.5-0.7-1-1.3-1.5-2l0,0C45.2,7.1,45.1,7,45,6.9
					c0,0,0,0-0.1-0.1c0,0,0,0,0,0C44.9,6.8,44.1,5.9,44.3,6.3z"/>
			</g>
		</g>
		<g id="XMLID_00000176753197432397483940000003947512579136838290_">
			<g>
				<path id="XMLID_00000093865126365321992730000000181016940656009385_" class="st0" d="M39.1,59.2c-1.6-3.5,1.6-5.7,4-7.6
					c2.8-2.1,5.6-4.1,8.1-6.6c2.1-2.1,4.6-4.3,5.7-7.1c1.1-3,0.2-6.2-1.2-8.9c-0.8-1.6-2-3.2-3.3-4.4c-0.2-0.1-0.8-0.8-1-0.7
					C51,24,51.6,24.9,51.6,25c1.4,2.7,1.2,5.9-0.5,8.4c-1.7,2.6-4.2,4.8-6.4,6.9c-2.5,2.3-5.4,4.2-8.1,6.3c-2.4,1.9-3.4,4.5-2.1,7.5
					c0.8,1.6,1.9,3.1,3.1,4.4C37.9,58.8,39.8,60.6,39.1,59.2L39.1,59.2z"/>
			</g>
		</g>
		<g id="XMLID_00000080886651365906444540000001689082857851911834_">
			<path class="st0" d="M38.9,36.7c-0.3-0.4-2.1-3.4-2.7-2.8c-1.1,0.9-2.6,1.6-4,2c-1.4,0.4-2.5,0-3.7-0.9c0,0,0,0-0.1-0.1
				c-0.2-0.2-0.3-0.3-0.5-0.6c-0.4-0.7-1-2.4-1.3-3.3c1.5,0.8,3.2,0.6,4.7-0.3c2.1-1.2,4-2.9,5.9-4.4c0.2-1.3-4.1-6.8-4.7-6.3l0,0
				c-1.7,1.3-3.4,2.7-5.2,4c-1.4,1-3.6,2-5.1,0.7c-0.5-0.5-0.7-0.2-0.5,0.4c1.8,5.1,4.4,9.9,8.2,13.8c1.3,1.4,3.1,3.2,5.1,3.4
				c2.1,0.3,3.9-1.1,5.7-2.1C41.3,39.8,39.1,36.9,38.9,36.7z"/>
		</g>
		<g id="XMLID_00000026878852902732474100000007150547739180634770_">
			<g>
				<path id="XMLID_00000002352568084147725680000008806395846148999859_" class="st0" d="M32.5,20c-1,3.9-3.3,6.5-6.6,8.8
					c-3.5,2.5-6.5,5.1-8.5,8.9c-1.8,3.5-2.3,7.5-1.3,11.4c1.2,4.4,3.9,8.2,6.5,11.8c0.3,0.3,2.3,3.2,2.8,2.8
					c0.5-0.4-1.8-3.3-1.9-3.5c-0.2-0.2-0.9-1.3-1.1-1.6c-0.3-0.5-0.6-1-0.8-1.5c-0.7-1.5-1.1-3.2-1.2-4.8c-0.3-3.8,0.9-7.3,3-10.4
					c2.2-3.2,5.2-5.2,8.3-7.5c2.8-2.1,4.7-4.7,5.6-8.1C37.5,25.2,33.2,19.5,32.5,20C30.8,21.3,32.5,20,32.5,20z"/>
			</g>
		</g>
		<g id="XMLID_00000117644332790405760970000008178847192213185972_">
			<path class="st0" d="M23.9,62.5c0.4,0.5,0.9,1,1.3,1.5c0.2,0.2,0.4,0.5,0.7,0.7c2.3,2.1,4.6,3.9,7.2,5.5c0.3,0.2,0.4,0,0.1-0.2
				c-2.2-2.1-7.3-6.7-8.8-8.6L23.9,62.5z"/>
		</g>
	</g>
</g>
<text transform="matrix(1 0 0 1 74.5591 50.3169)" class="st0 st1 st2">ilmweb</text>
</svg>
